<svg width="20" height="21" viewBox="0 0 20 21" fill="none" xmlns="http://www.w3.org/2000/svg">
<path d="M19.66 8.24873L18 6.73873L17.15 5.99873L10.66 0.248734C10.4775 0.0884151 10.2429 0 9.99999 0C9.75709 0 9.52248 0.0884151 9.33999 0.248734L2.84999 5.99873L1.99999 6.73873L0.339993 8.24873C0.15416 8.42723 0.0443991 8.67057 0.0335951 8.92801C0.0227911 9.18545 0.111778 9.43713 0.282002 9.63057C0.452226 9.824 0.690547 9.94427 0.947275 9.96628C1.204 9.9883 1.45932 9.91037 1.65999 9.74873L1.99999 9.44873V17.9987C1.99999 18.7944 2.31606 19.5574 2.87867 20.1201C3.44128 20.6827 4.20434 20.9987 4.99999 20.9987H7.99999C8.26521 20.9987 8.51956 20.8934 8.7071 20.7058C8.89464 20.5183 8.99999 20.264 8.99999 19.9987V14.9987C8.99999 14.7335 9.10535 14.4792 9.29289 14.2916C9.48042 14.1041 9.73478 13.9987 9.99999 13.9987C10.133 14.0006 10.2643 14.029 10.3862 14.0822C10.5081 14.1354 10.6182 14.2124 10.71 14.3087C10.8035 14.3974 10.8775 14.5045 10.9275 14.6233C10.9774 14.7421 11.0021 14.8699 11 14.9987V19.9987C11 20.264 11.1054 20.5183 11.2929 20.7058C11.4804 20.8934 11.7348 20.9987 12 20.9987H15C15.7956 20.9987 16.5587 20.6827 17.1213 20.1201C17.6839 19.5574 18 18.7944 18 17.9987V9.44873L18.34 9.74873C18.539 9.92354 18.7993 10.0122 19.0636 9.99536C19.328 9.97849 19.5748 9.85742 19.75 9.65873C19.9248 9.45971 20.0135 9.19947 19.9966 8.93512C19.9797 8.67077 19.8587 8.42391 19.66 8.24873ZM16 17.9987C16 18.264 15.8946 18.5183 15.7071 18.7058C15.5196 18.8934 15.2652 18.9987 15 18.9987H13V14.9987C13 14.2031 12.6839 13.44 12.1213 12.8774C11.5587 12.3148 10.7956 11.9987 9.99999 11.9987C9.20434 11.9987 8.44128 12.3148 7.87867 12.8774C7.31606 13.44 6.99999 14.2031 6.99999 14.9987V18.9987H4.99999C4.73478 18.9987 4.48042 18.8934 4.29289 18.7058C4.10535 18.5183 3.99999 18.264 3.99999 17.9987V7.66873L9.99999 2.33873L16 7.66873V17.9987Z" fill="#231F20"/>
</svg>
